<svg xmlns="http://www.w3.org/2000/svg" height="48" viewBox="0 -960 960 960" width="48"><path d="M480.454-99Q320-99 209.5-151T99-280v-400q0-74.7 111.5-128.85Q322-863 479.78-863q157.78 0 270.5 53.65T863-680v400q0 77-111.546 129t-271 52Zm-.46-509q85.333 0 174.67-26Q744-660 772-693q-30-32-119.997-59t-172.497-27Q393-779 304-752.5T189-693q27 34 114.327 59.5T479.994-608ZM479-396q43 0 82.632-5 39.632-5 77.297-14t72.868-23Q747-452 779-468v-125q-32 16-67 29t-73 21q-38 8-78 12.5t-82.357 4.5q-40.358 0-81.198-4.5-40.841-4.5-79.643-13T245-564.5Q211-577 183-593v125q27 16 61 29t72 23q38 10 79.656 15 41.655 5 83.344 5Zm1 213q46 1 94.5-6.5t91.5-21q43-13.5 73.5-31T779-277v-105q-31 18-64.5 31t-71.686 21.5q-38.186 8.5-79.39 13T479-312q-41.689 0-84.344-5Q352-322 315-330.5q-37-8.5-71-22T183-382v105.947Q191-259 220.5-242.5q29.5 16.5 73 30.5t92 21.5Q434-183 480-183Z"/></svg>