<svg xmlns="http://www.w3.org/2000/svg" height="48" viewBox="0 -960 960 960" width="48"><path d="M475.056-99q-160.56 0-270.513-111.927Q94.591-322.853 97-481h91q1.152 121.3 84.004 206.15Q354.855-190 475-190q121.329 0 207.664-85.948Q769-361.896 769-484.321 769-605 682.045-687.5 595.089-770 475-770q-59.635 0-112.817 24Q309-722 269-681h83v70H129v-221h67v94q54-57 126.135-90.5Q394.271-862 475-862q79.171 0 148.946 30.4 69.776 30.4 121.864 81.443 52.087 51.042 82.639 119.802Q859-561.594 859-481.797t-30.551 149.354q-30.552 69.558-82.639 121.6Q693.722-158.8 623.946-128.9 554.171-99 475.056-99ZM602-313 449-463.565V-681h68v187.513L651-363l-49 50Z"/></svg>