<svg xmlns="http://www.w3.org/2000/svg" height="48" viewBox="0 -960 960 960" width="48"><path d="M446-195h65v-47q58-5 93.5-35.496 35.5-30.496 35.5-86.355 0-51.105-30.367-86.127Q579.267-485 508.212-513 452-537 427.5-556.209 403-575.418 403-605.78q0-25.22 19.812-41.72Q442.625-664 478-664q30.941 0 52.471 13.5Q552-637 567-606l57-26q-20.157-43.195-46.579-61.598Q551-712 513-719.113V-764h-65v45.361q-54 9.639-82 40.954t-28 75.737Q338-550 371-518.5 404-487 473-461q57 24 79.5 45t22.5 51.871q0 30.067-24 48.098T486.064-298q-37.936 0-67-22.5T379-382l-60 20q20 51 53 79t74 38.349V-195Zm33.679 136Q393.36-59 316.02-91.52q-77.34-32.52-134.66-89.84-57.32-57.32-89.84-134.653T59-479.862q0-87.41 32.579-164.287 32.579-76.878 90.19-134.496 57.611-57.618 134.495-90.487Q393.147-902 479.336-902q87.55 0 164.897 32.774t134.644 90.244q57.297 57.471 90.21 134.598Q902-567.257 902-479.458q0 86.734-32.868 163.395-32.869 76.661-90.487 134.283-57.618 57.622-134.504 90.201Q567.255-59 479.679-59Zm.092-91q136.742 0 233.485-96.387Q810-342.773 810-479.771q0-136.742-96.515-233.485Q616.971-810 479.729-810q-136.242 0-232.985 96.515Q150-616.971 150-479.729q0 136.242 96.387 232.985Q342.773-150 479.771-150ZM480-480Z"/></svg>