<svg xmlns="http://www.w3.org/2000/svg" height="48" viewBox="0 -960 960 960" width="48"><path d="M309.184-616q15.216 0 25.016-10.184 9.8-10.184 9.8-24.5 0-15.716-10-25.016-10-9.3-24.316-9.3-15.716 0-25.2 9.3T275-651.184q0 15.216 9.484 25.2t24.7 9.984Zm0 170q15.216 0 25.016-9.5Q344-465 344-480t-10-25q-10-10-24.316-10-15.716 0-25.2 10T275-480q0 15 9.484 24.5t24.7 9.5Zm0 171q15.216 0 25.016-9.484 9.8-9.484 9.8-24.7T334-334.2q-10-9.8-24.316-9.8-15.716 0-25.2 10T275-309.684q0 15.716 9.484 25.2t24.7 9.484ZM190-99q-37.175 0-64.088-26.912Q99-152.825 99-190v-580q0-37.588 26.912-64.794Q152.825-862 190-862h450l222 222v450q0 37.175-27.206 64.088Q807.588-99 770-99H190Zm0-91h580v-397.286H587.714V-770H190v580Zm0-580v182.714V-770v580-580Z"/></svg>