<?xml version="1.0" standalone="no"?>
<!DOCTYPE svg PUBLIC "-//W3C//DTD SVG 20010904//EN"
 "http://www.w3.org/TR/2001/REC-SVG-20010904/DTD/svg10.dtd">
<svg version="1.0" xmlns="http://www.w3.org/2000/svg"
 width="48.000000pt" height="48.000000pt" viewBox="0 0 48.000000 48.000000"
 preserveAspectRatio="xMidYMid meet">

<g transform="translate(0.000000,48.000000) scale(0.100000,-0.100000)"
fill="#000000" stroke="none">
<path d="M80 391 c0 -25 -4 -30 -27 -33 l-28 -3 0 -145 0 -145 188 -3 187 -2
0 29 c0 25 4 30 27 33 l28 3 0 145 0 145 -187 3 -188 2 0 -29z m360 -121 c0
-123 -1 -130 -20 -130 -19 0 -20 7 -20 110 l0 110 -149 0 c-143 0 -171 5 -156
30 4 6 73 10 176 10 l169 0 0 -130z m-55 -60 l0 -125 -172 -3 -173 -2 0 130 0
130 173 -2 172 -3 0 -125z"/>
</g>
</svg>
